solid OpenSCAD_Model
  facet normal -0.707107 2.43605e-16 -0.707107
    outer loop
      vertex -33.5 -80.8235 -4
      vertex -33.5 -77.8235 -4
      vertex -21.5 -80.8235 -16
    endloop
  endfacet
  facet normal -0.707107 2.43605e-16 -0.707107
    outer loop
      vertex -21.5 -80.8235 -16
      vertex -33.5 -77.8235 -4
      vertex -21.5 -77.8235 -16
    endloop
  endfacet
  facet normal -1.22465e-16 -1 -2.22045e-16
    outer loop
      vertex -21.5 -80.8235 -4
      vertex -33.5 -80.8235 -4
      vertex -21.5 -80.8235 -16
    endloop
  endfacet
  facet normal 1 -1.22465e-16 0
    outer loop
      vertex -21.5 -77.8235 -4
      vertex -21.5 -80.8235 -4
      vertex -21.5 -80.8235 -16
    endloop
  endfacet
  facet normal 1 -1.22465e-16 0
    outer loop
      vertex -21.5 -77.8235 -16
      vertex -21.5 -77.8235 -4
      vertex -21.5 -80.8235 -16
    endloop
  endfacet
  facet normal 1.22465e-16 1 2.22045e-16
    outer loop
      vertex -21.5 -77.8235 -4
      vertex -21.5 -77.8235 -16
      vertex -33.5 -77.8235 -4
    endloop
  endfacet
  facet normal -1 0 0
    outer loop
      vertex -33.5 -81 -4
      vertex -33.5 -81 0
      vertex -33.5 -80.8235 -4
    endloop
  endfacet
  facet normal -1 0 0
    outer loop
      vertex -33.5 -80.8235 -4
      vertex -33.5 -81 0
      vertex -33.5 81 0
    endloop
  endfacet
  facet normal -1 0 0
    outer loop
      vertex -33.5 -9.7563 -4
      vertex -33.5 81 0
      vertex -33.5 81 -4
    endloop
  endfacet
  facet normal -1 0 0
    outer loop
      vertex -33.5 -32.4454 -4
      vertex -33.5 81 0
      vertex -33.5 -9.7563 -4
    endloop
  endfacet
  facet normal -1 0 0
    outer loop
      vertex -33.5 -32.4454 -4
      vertex -33.5 -9.7563 -4
      vertex -33.5 -12.7563 -4
    endloop
  endfacet
  facet normal -1 0 0
    outer loop
      vertex -33.5 -55.1345 -4
      vertex -33.5 81 0
      vertex -33.5 -32.4454 -4
    endloop
  endfacet
  facet normal -1 0 0
    outer loop
      vertex -33.5 -77.8235 -4
      vertex -33.5 81 0
      vertex -33.5 -55.1345 -4
    endloop
  endfacet
  facet normal -1 0 0
    outer loop
      vertex -33.5 -58.1345 -4
      vertex -33.5 -77.8235 -4
      vertex -33.5 -55.1345 -4
    endloop
  endfacet
  facet normal -1 0 0
    outer loop
      vertex -33.5 -80.8235 -4
      vertex -33.5 81 0
      vertex -33.5 -77.8235 -4
    endloop
  endfacet
  facet normal -1 0 0
    outer loop
      vertex -33.5 -35.4454 -4
      vertex -33.5 -55.1345 -4
      vertex -33.5 -32.4454 -4
    endloop
  endfacet
  facet normal 0 0 -1
    outer loop
      vertex -33.5 -81 -4
      vertex -33.5 -80.8235 -4
      vertex -21.5 -81 -4
    endloop
  endfacet
  facet normal 0 0 -1
    outer loop
      vertex -21.5 -81 -4
      vertex -33.5 -80.8235 -4
      vertex -21.5 -80.8235 -4
    endloop
  endfacet
  facet normal 0 0 -1
    outer loop
      vertex -21.5 -81 -4
      vertex -21.5 -80.8235 -4
      vertex -21.5 -77.8235 -4
    endloop
  endfacet
  facet normal 0 0 -1
    outer loop
      vertex -21.5 -77.8235 -4
      vertex -33.5 -77.8235 -4
      vertex -33.5 -58.1345 -4
    endloop
  endfacet
  facet normal 0 0 -1
    outer loop
      vertex -21.5 -77.8235 -4
      vertex -33.5 -58.1345 -4
      vertex -21.5 -58.1345 -4
    endloop
  endfacet
  facet normal 0 0 -1
    outer loop
      vertex -21.5 -77.8235 -4
      vertex -21.5 -58.1345 -4
      vertex -21.5 -81 -4
    endloop
  endfacet
  facet normal 0 0 -1
    outer loop
      vertex -21.5 -58.1345 -4
      vertex -21.5 -55.1345 -4
      vertex -21.5 -81 -4
    endloop
  endfacet
  facet normal 0 0 -1
    outer loop
      vertex -21.5 -55.1345 -4
      vertex -33.5 -55.1345 -4
      vertex -33.5 -35.4454 -4
    endloop
  endfacet
  facet normal 0 0 -1
    outer loop
      vertex -21.5 -55.1345 -4
      vertex -33.5 -35.4454 -4
      vertex -21.5 -35.4454 -4
    endloop
  endfacet
  facet normal 0 0 -1
    outer loop
      vertex -21.5 -55.1345 -4
      vertex -21.5 -35.4454 -4
      vertex -21.5 -81 -4
    endloop
  endfacet
  facet normal 0 0 -1
    outer loop
      vertex -21.5 -35.4454 -4
      vertex -21.5 -32.4454 -4
      vertex -21.5 -81 -4
    endloop
  endfacet
  facet normal 0 0 -1
    outer loop
      vertex -21.5 -32.4454 -4
      vertex -33.5 -32.4454 -4
      vertex -33.5 -12.7563 -4
    endloop
  endfacet
  facet normal 0 0 -1
    outer loop
      vertex -21.5 -32.4454 -4
      vertex -33.5 -12.7563 -4
      vertex -21.5 -12.7563 -4
    endloop
  endfacet
  facet normal 0 0 -1
    outer loop
      vertex -21.5 -32.4454 -4
      vertex -21.5 -12.7563 -4
      vertex -21.5 -81 -4
    endloop
  endfacet
  facet normal 0 0 -1
    outer loop
      vertex -21.5 -12.7563 -4
      vertex -21.5 -9.7563 -4
      vertex -21.5 -81 -4
    endloop
  endfacet
  facet normal 0 0 -1
    outer loop
      vertex -33.5 9.93277 -4
      vertex -33.5 -9.7563 -4
      vertex -33.5 81 -4
    endloop
  endfacet
  facet normal 0 0 -1
    outer loop
      vertex -33.5 32.6218 -4
      vertex -33.5 55.3109 -4
      vertex -33.5 35.6218 -4
    endloop
  endfacet
  facet normal 0 0 -1
    outer loop
      vertex -21.5 32.6218 -4
      vertex -33.5 12.9328 -4
      vertex -33.5 32.6218 -4
    endloop
  endfacet
  facet normal 0 0 -1
    outer loop
      vertex -33.5 58.3109 -4
      vertex -33.5 78 -4
      vertex -21.5 78 -4
    endloop
  endfacet
  facet normal 0 0 -1
    outer loop
      vertex -33.5 55.3109 -4
      vertex -33.5 78 -4
      vertex -33.5 58.3109 -4
    endloop
  endfacet
  facet normal 0 0 -1
    outer loop
      vertex -33.5 78 -4
      vertex -33.5 55.3109 -4
      vertex -33.5 81 -4
    endloop
  endfacet
  facet normal 0 0 -1
    outer loop
      vertex -33.5 35.6218 -4
      vertex -21.5 55.3109 -4
      vertex -21.5 35.6218 -4
    endloop
  endfacet
  facet normal 0 0 -1
    outer loop
      vertex -21.5 55.3109 -4
      vertex -33.5 35.6218 -4
      vertex -33.5 55.3109 -4
    endloop
  endfacet
  facet normal 0 0 -1
    outer loop
      vertex -21.5 9.93277 -4
      vertex -33.5 -9.7563 -4
      vertex -33.5 9.93277 -4
    endloop
  endfacet
  facet normal 0 0 -1
    outer loop
      vertex -33.5 55.3109 -4
      vertex -33.5 32.6218 -4
      vertex -33.5 81 -4
    endloop
  endfacet
  facet normal 0 0 -1
    outer loop
      vertex -33.5 12.9328 -4
      vertex -21.5 32.6218 -4
      vertex -21.5 12.9328 -4
    endloop
  endfacet
  facet normal 0 0 -1
    outer loop
      vertex -33.5 9.93277 -4
      vertex -33.5 32.6218 -4
      vertex -33.5 12.9328 -4
    endloop
  endfacet
  facet normal 0 0 -1
    outer loop
      vertex -21.5 9.93277 -4
      vertex -21.5 -9.7563 -4
      vertex -33.5 -9.7563 -4
    endloop
  endfacet
  facet normal 0 0 -1
    outer loop
      vertex -33.5 32.6218 -4
      vertex -33.5 9.93277 -4
      vertex -33.5 81 -4
    endloop
  endfacet
  facet normal 0 0 -1
    outer loop
      vertex -21.5 -9.7563 -4
      vertex -21.5 9.93277 -4
      vertex -21.5 -81 -4
    endloop
  endfacet
  facet normal 0 0 -1
    outer loop
      vertex -33.5 58.3109 -4
      vertex -21.5 78 -4
      vertex -21.5 58.3109 -4
    endloop
  endfacet
  facet normal -1.22465e-16 -1 -2.22045e-16
    outer loop
      vertex -21.5 -58.1345 -4
      vertex -33.5 -58.1345 -4
      vertex -21.5 -58.1345 -16
    endloop
  endfacet
  facet normal 1.22465e-16 1 2.22045e-16
    outer loop
      vertex -21.5 -55.1345 -4
      vertex -21.5 -55.1345 -16
      vertex -33.5 -55.1345 -4
    endloop
  endfacet
  facet normal -1.22465e-16 -1 -2.22045e-16
    outer loop
      vertex -21.5 -35.4454 -4
      vertex -33.5 -35.4454 -4
      vertex -21.5 -35.4454 -16
    endloop
  endfacet
  facet normal 1.22465e-16 1 2.22045e-16
    outer loop
      vertex -21.5 -32.4454 -4
      vertex -21.5 -32.4454 -16
      vertex -33.5 -32.4454 -4
    endloop
  endfacet
  facet normal -1.22465e-16 -1 -2.22045e-16
    outer loop
      vertex -21.5 -12.7563 -4
      vertex -33.5 -12.7563 -4
      vertex -21.5 -12.7563 -16
    endloop
  endfacet
  facet normal 1.22465e-16 1 2.22045e-16
    outer loop
      vertex -21.5 -9.7563 -4
      vertex -21.5 -9.7563 -16
      vertex -33.5 -9.7563 -4
    endloop
  endfacet
  facet normal 0 1 0
    outer loop
      vertex -21.5 81 -16
      vertex -17.5 81 0
      vertex -17.5 81 -55
    endloop
  endfacet
  facet normal 0 1 0
    outer loop
      vertex 21.5 81 -4
      vertex 17.5 81 0
      vertex 33.5 81 0
    endloop
  endfacet
  facet normal 0 1 0
    outer loop
      vertex 17.5 81 -55
      vertex 17.5 81 0
      vertex 21.5 81 -4
    endloop
  endfacet
  facet normal 0 1 0
    outer loop
      vertex 21.5 81 -59
      vertex 17.5 81 -55
      vertex 21.5 81 -4
    endloop
  endfacet
  facet normal 0 1 0
    outer loop
      vertex -21.5 81 -16
      vertex -17.5 81 -55
      vertex -21.5 81 -59
    endloop
  endfacet
  facet normal 0 1 0
    outer loop
      vertex 17.5 81 -55
      vertex 21.5 81 -59
      vertex -17.5 81 -55
    endloop
  endfacet
  facet normal 0 1 0
    outer loop
      vertex -17.5 81 -55
      vertex 21.5 81 -59
      vertex -21.5 81 -59
    endloop
  endfacet
  facet normal 0 1 0
    outer loop
      vertex -33.5 81 -4
      vertex -33.5 81 0
      vertex -17.5 81 0
    endloop
  endfacet
  facet normal 0 1 0
    outer loop
      vertex -21.5 81 -4
      vertex -17.5 81 0
      vertex -21.5 81 -16
    endloop
  endfacet
  facet normal 0 1 0
    outer loop
      vertex -33.5 81 -4
      vertex -17.5 81 0
      vertex -21.5 81 -4
    endloop
  endfacet
  facet normal 0 1 0
    outer loop
      vertex 21.5 81 -4
      vertex 33.5 81 0
      vertex 33.5 81 -4
    endloop
  endfacet
  facet normal 0 0 1
    outer loop
      vertex -33.5 81 0
      vertex -33.5 -81 0
      vertex -17.5 -81 0
    endloop
  endfacet
  facet normal 0 0 1
    outer loop
      vertex -17.5 81 0
      vertex -33.5 81 0
      vertex -17.5 -81 0
    endloop
  endfacet
  facet normal 0 -1 0
    outer loop
      vertex -33.5 -81 0
      vertex -33.5 -81 -4
      vertex -21.5 -81 -4
    endloop
  endfacet
  facet normal 0 -1 0
    outer loop
      vertex -17.5 -81 -55
      vertex -17.5 -81 0
      vertex -21.5 -81 -4
    endloop
  endfacet
  facet normal 0 -1 0
    outer loop
      vertex 33.5 -81 -4
      vertex 33.5 -81 0
      vertex 17.5 -81 0
    endloop
  endfacet
  facet normal 0 -1 0
    outer loop
      vertex -21.5 -81 -59
      vertex 21.5 -81 -59
      vertex 17.5 -81 -55
    endloop
  endfacet
  facet normal 0 -1 0
    outer loop
      vertex -21.5 -81 -59
      vertex -17.5 -81 -55
      vertex -21.5 -81 -4
    endloop
  endfacet
  facet normal 0 -1 0
    outer loop
      vertex -21.5 -81 -59
      vertex 17.5 -81 -55
      vertex -17.5 -81 -55
    endloop
  endfacet
  facet normal 0 -1 0
    outer loop
      vertex -21.5 -81 -4
      vertex -17.5 -81 0
      vertex -33.5 -81 0
    endloop
  endfacet
  facet normal 0 -1 0
    outer loop
      vertex 17.5 -81 0
      vertex 21.5 -81 -4
      vertex 33.5 -81 -4
    endloop
  endfacet
  facet normal 0 -1 0
    outer loop
      vertex 17.5 -81 0
      vertex 21.5 -81 -16
      vertex 21.5 -81 -4
    endloop
  endfacet
  facet normal 0 -1 0
    outer loop
      vertex 17.5 -81 0
      vertex 21.5 -81 -59
      vertex 21.5 -81 -16
    endloop
  endfacet
  facet normal 0 -1 0
    outer loop
      vertex 17.5 -81 0
      vertex 17.5 -81 -55
      vertex 21.5 -81 -59
    endloop
  endfacet
  facet normal -1 0 0
    outer loop
      vertex -21.5 -81 -59
      vertex -21.5 -81 -4
      vertex -21.5 81 -59
    endloop
  endfacet
  facet normal -1 0 0
    outer loop
      vertex -21.5 9.93277 -16
      vertex -21.5 -81 -4
      vertex -21.5 9.93277 -4
    endloop
  endfacet
  facet normal -1 0 0
    outer loop
      vertex -21.5 81 -59
      vertex -21.5 -81 -4
      vertex -21.5 9.93277 -16
    endloop
  endfacet
  facet normal -1 0 0
    outer loop
      vertex -21.5 81 -59
      vertex -21.5 9.93277 -16
      vertex -21.5 12.9328 -16
    endloop
  endfacet
  facet normal -1 0 0
    outer loop
      vertex -21.5 35.6218 -4
      vertex -21.5 81 -59
      vertex -21.5 35.6218 -16
    endloop
  endfacet
  facet normal -1 0 0
    outer loop
      vertex -21.5 32.6218 -16
      vertex -21.5 12.9328 -4
      vertex -21.5 32.6218 -4
    endloop
  endfacet
  facet normal -1 0 0
    outer loop
      vertex -21.5 81 -59
      vertex -21.5 12.9328 -4
      vertex -21.5 32.6218 -16
    endloop
  endfacet
  facet normal -1 0 0
    outer loop
      vertex -21.5 81 -59
      vertex -21.5 32.6218 -16
      vertex -21.5 35.6218 -16
    endloop
  endfacet
  facet normal -1 0 0
    outer loop
      vertex -21.5 58.3109 -4
      vertex -21.5 81 -59
      vertex -21.5 58.3109 -16
    endloop
  endfacet
  facet normal -1 0 0
    outer loop
      vertex -21.5 55.3109 -16
      vertex -21.5 35.6218 -4
      vertex -21.5 55.3109 -4
    endloop
  endfacet
  facet normal -1 0 0
    outer loop
      vertex -21.5 81 -59
      vertex -21.5 35.6218 -4
      vertex -21.5 55.3109 -16
    endloop
  endfacet
  facet normal -1 0 0
    outer loop
      vertex -21.5 81 -59
      vertex -21.5 55.3109 -16
      vertex -21.5 58.3109 -16
    endloop
  endfacet
  facet normal -1 0 0
    outer loop
      vertex -21.5 81 -16
      vertex -21.5 81 -59
      vertex -21.5 78 -16
    endloop
  endfacet
  facet normal -1 0 0
    outer loop
      vertex -21.5 78 -16
      vertex -21.5 58.3109 -4
      vertex -21.5 78 -4
    endloop
  endfacet
  facet normal -1 0 0
    outer loop
      vertex -21.5 81 -59
      vertex -21.5 58.3109 -4
      vertex -21.5 78 -16
    endloop
  endfacet
  facet normal -1 0 0
    outer loop
      vertex -21.5 12.9328 -4
      vertex -21.5 81 -59
      vertex -21.5 12.9328 -16
    endloop
  endfacet
  facet normal -1.22465e-16 -1 -2.22045e-16
    outer loop
      vertex -21.5 9.93277 -4
      vertex -33.5 9.93277 -4
      vertex -21.5 9.93277 -16
    endloop
  endfacet
  facet normal -0.707107 2.43605e-16 -0.707107
    outer loop
      vertex -33.5 9.93277 -4
      vertex -33.5 12.9328 -4
      vertex -21.5 9.93277 -16
    endloop
  endfacet
  facet normal -0.707107 2.43605e-16 -0.707107
    outer loop
      vertex -21.5 9.93277 -16
      vertex -33.5 12.9328 -4
      vertex -21.5 12.9328 -16
    endloop
  endfacet
  facet normal 1.22465e-16 1 2.22045e-16
    outer loop
      vertex -21.5 12.9328 -16
      vertex -33.5 12.9328 -4
      vertex -21.5 12.9328 -4
    endloop
  endfacet
  facet normal -1.22465e-16 -1 -2.22045e-16
    outer loop
      vertex -21.5 32.6218 -4
      vertex -33.5 32.6218 -4
      vertex -21.5 32.6218 -16
    endloop
  endfacet
  facet normal -0.707107 2.43605e-16 -0.707107
    outer loop
      vertex -33.5 32.6218 -4
      vertex -33.5 35.6218 -4
      vertex -21.5 32.6218 -16
    endloop
  endfacet
  facet normal -0.707107 2.43605e-16 -0.707107
    outer loop
      vertex -21.5 32.6218 -16
      vertex -33.5 35.6218 -4
      vertex -21.5 35.6218 -16
    endloop
  endfacet
  facet normal 1.22465e-16 1 2.22045e-16
    outer loop
      vertex -21.5 35.6218 -16
      vertex -33.5 35.6218 -4
      vertex -21.5 35.6218 -4
    endloop
  endfacet
  facet normal -1.22465e-16 -1 -2.22045e-16
    outer loop
      vertex -21.5 55.3109 -4
      vertex -33.5 55.3109 -4
      vertex -21.5 55.3109 -16
    endloop
  endfacet
  facet normal -0.707107 2.43605e-16 -0.707107
    outer loop
      vertex -33.5 55.3109 -4
      vertex -33.5 58.3109 -4
      vertex -21.5 55.3109 -16
    endloop
  endfacet
  facet normal -0.707107 2.43605e-16 -0.707107
    outer loop
      vertex -21.5 55.3109 -16
      vertex -33.5 58.3109 -4
      vertex -21.5 58.3109 -16
    endloop
  endfacet
  facet normal 1.22465e-16 1 2.22045e-16
    outer loop
      vertex -21.5 58.3109 -16
      vertex -33.5 58.3109 -4
      vertex -21.5 58.3109 -4
    endloop
  endfacet
  facet normal -1.22465e-16 -1 -2.22045e-16
    outer loop
      vertex -21.5 78 -4
      vertex -33.5 78 -4
      vertex -21.5 78 -16
    endloop
  endfacet
  facet normal -0.707107 2.43605e-16 -0.707107
    outer loop
      vertex -33.5 78 -4
      vertex -33.5 81 -4
      vertex -21.5 78 -16
    endloop
  endfacet
  facet normal -0.707107 2.43605e-16 -0.707107
    outer loop
      vertex -21.5 78 -16
      vertex -33.5 81 -4
      vertex -21.5 81 -16
    endloop
  endfacet
  facet normal 1 -1.22465e-16 0
    outer loop
      vertex -21.5 -9.7563 -4
      vertex -21.5 -12.7563 -4
      vertex -21.5 -12.7563 -16
    endloop
  endfacet
  facet normal 1 -1.22465e-16 0
    outer loop
      vertex -21.5 -9.7563 -16
      vertex -21.5 -9.7563 -4
      vertex -21.5 -12.7563 -16
    endloop
  endfacet
  facet normal 1 -1.22465e-16 0
    outer loop
      vertex -21.5 -32.4454 -4
      vertex -21.5 -35.4454 -4
      vertex -21.5 -35.4454 -16
    endloop
  endfacet
  facet normal 1 -1.22465e-16 0
    outer loop
      vertex -21.5 -32.4454 -16
      vertex -21.5 -32.4454 -4
      vertex -21.5 -35.4454 -16
    endloop
  endfacet
  facet normal 1 -1.22465e-16 0
    outer loop
      vertex -21.5 -55.1345 -4
      vertex -21.5 -58.1345 -4
      vertex -21.5 -58.1345 -16
    endloop
  endfacet
  facet normal 1 -1.22465e-16 0
    outer loop
      vertex -21.5 -55.1345 -16
      vertex -21.5 -55.1345 -4
      vertex -21.5 -58.1345 -16
    endloop
  endfacet
  facet normal -0.707107 2.43605e-16 -0.707107
    outer loop
      vertex -33.5 -58.1345 -4
      vertex -33.5 -55.1345 -4
      vertex -21.5 -58.1345 -16
    endloop
  endfacet
  facet normal -0.707107 2.43605e-16 -0.707107
    outer loop
      vertex -21.5 -58.1345 -16
      vertex -33.5 -55.1345 -4
      vertex -21.5 -55.1345 -16
    endloop
  endfacet
  facet normal -0.707107 2.43605e-16 -0.707107
    outer loop
      vertex -33.5 -35.4454 -4
      vertex -33.5 -32.4454 -4
      vertex -21.5 -35.4454 -16
    endloop
  endfacet
  facet normal -0.707107 2.43605e-16 -0.707107
    outer loop
      vertex -21.5 -35.4454 -16
      vertex -33.5 -32.4454 -4
      vertex -21.5 -32.4454 -16
    endloop
  endfacet
  facet normal -0.707107 2.43605e-16 -0.707107
    outer loop
      vertex -33.5 -12.7563 -4
      vertex -33.5 -9.7563 -4
      vertex -21.5 -12.7563 -16
    endloop
  endfacet
  facet normal -0.707107 2.43605e-16 -0.707107
    outer loop
      vertex -21.5 -12.7563 -16
      vertex -33.5 -9.7563 -4
      vertex -21.5 -9.7563 -16
    endloop
  endfacet
  facet normal 0 0 -1
    outer loop
      vertex -21.5 -81 -59
      vertex -21.5 81 -59
      vertex 21.5 -81 -59
    endloop
  endfacet
  facet normal 0 0 -1
    outer loop
      vertex 21.5 -81 -59
      vertex -21.5 81 -59
      vertex 21.5 81 -59
    endloop
  endfacet
  facet normal 1 0 0
    outer loop
      vertex 21.5 -81 -16
      vertex 21.5 -81 -59
      vertex 21.5 81 -59
    endloop
  endfacet
  facet normal 1 0 0
    outer loop
      vertex 21.5 58.1345 -4
      vertex 21.5 77.8235 -16
      vertex 21.5 77.8235 -4
    endloop
  endfacet
  facet normal 1 0 0
    outer loop
      vertex 21.5 -78 -16
      vertex 21.5 -81 -16
      vertex 21.5 81 -59
    endloop
  endfacet
  facet normal 1 0 0
    outer loop
      vertex 21.5 -9.93277 -4
      vertex 21.5 -9.93277 -16
      vertex 21.5 9.7563 -16
    endloop
  endfacet
  facet normal 1 0 0
    outer loop
      vertex 21.5 81 -4
      vertex 21.5 80.8235 -16
      vertex 21.5 81 -59
    endloop
  endfacet
  facet normal 1 0 0
    outer loop
      vertex 21.5 12.7563 -4
      vertex 21.5 12.7563 -16
      vertex 21.5 32.4454 -16
    endloop
  endfacet
  facet normal 1 0 0
    outer loop
      vertex 21.5 32.4454 -16
      vertex 21.5 12.7563 -16
      vertex 21.5 35.4454 -16
    endloop
  endfacet
  facet normal 1 0 0
    outer loop
      vertex 21.5 -32.6218 -4
      vertex 21.5 -32.6218 -16
      vertex 21.5 -12.9328 -16
    endloop
  endfacet
  facet normal 1 0 0
    outer loop
      vertex 21.5 80.8235 -16
      vertex 21.5 58.1345 -16
      vertex 21.5 81 -59
    endloop
  endfacet
  facet normal 1 0 0
    outer loop
      vertex 21.5 35.4454 -4
      vertex 21.5 35.4454 -16
      vertex 21.5 55.1345 -16
    endloop
  endfacet
  facet normal 1 0 0
    outer loop
      vertex 21.5 9.7563 -16
      vertex 21.5 -9.93277 -16
      vertex 21.5 12.7563 -16
    endloop
  endfacet
  facet normal 1 0 0
    outer loop
      vertex 21.5 -55.3109 -4
      vertex 21.5 -55.3109 -16
      vertex 21.5 -35.6218 -16
    endloop
  endfacet
  facet normal 1 0 0
    outer loop
      vertex 21.5 58.1345 -16
      vertex 21.5 35.4454 -16
      vertex 21.5 81 -59
    endloop
  endfacet
  facet normal 1 0 0
    outer loop
      vertex 21.5 55.1345 -16
      vertex 21.5 35.4454 -16
      vertex 21.5 58.1345 -16
    endloop
  endfacet
  facet normal 1 0 0
    outer loop
      vertex 21.5 -12.9328 -16
      vertex 21.5 -32.6218 -16
      vertex 21.5 -9.93277 -16
    endloop
  endfacet
  facet normal 1 0 0
    outer loop
      vertex 21.5 35.4454 -16
      vertex 21.5 12.7563 -16
      vertex 21.5 81 -59
    endloop
  endfacet
  facet normal 1 0 0
    outer loop
      vertex 21.5 35.4454 -4
      vertex 21.5 55.1345 -16
      vertex 21.5 55.1345 -4
    endloop
  endfacet
  facet normal 1 0 0
    outer loop
      vertex 21.5 -35.6218 -16
      vertex 21.5 -55.3109 -16
      vertex 21.5 -32.6218 -16
    endloop
  endfacet
  facet normal 1 0 0
    outer loop
      vertex 21.5 12.7563 -16
      vertex 21.5 -9.93277 -16
      vertex 21.5 81 -59
    endloop
  endfacet
  facet normal 1 0 0
    outer loop
      vertex 21.5 -9.93277 -4
      vertex 21.5 9.7563 -16
      vertex 21.5 9.7563 -4
    endloop
  endfacet
  facet normal 1 0 0
    outer loop
      vertex 21.5 -78 -4
      vertex 21.5 -78 -16
      vertex 21.5 -58.3109 -16
    endloop
  endfacet
  facet normal 1 0 0
    outer loop
      vertex 21.5 -9.93277 -16
      vertex 21.5 -32.6218 -16
      vertex 21.5 81 -59
    endloop
  endfacet
  facet normal 1 0 0
    outer loop
      vertex 21.5 -55.3109 -4
      vertex 21.5 -35.6218 -16
      vertex 21.5 -35.6218 -4
    endloop
  endfacet
  facet normal 1 0 0
    outer loop
      vertex 21.5 -58.3109 -16
      vertex 21.5 -78 -16
      vertex 21.5 -55.3109 -16
    endloop
  endfacet
  facet normal 1 0 0
    outer loop
      vertex 21.5 -32.6218 -16
      vertex 21.5 -55.3109 -16
      vertex 21.5 81 -59
    endloop
  endfacet
  facet normal 1 0 0
    outer loop
      vertex 21.5 -32.6218 -4
      vertex 21.5 -12.9328 -16
      vertex 21.5 -12.9328 -4
    endloop
  endfacet
  facet normal 1 0 0
    outer loop
      vertex 21.5 12.7563 -4
      vertex 21.5 32.4454 -16
      vertex 21.5 32.4454 -4
    endloop
  endfacet
  facet normal 1 0 0
    outer loop
      vertex 21.5 -55.3109 -16
      vertex 21.5 -78 -16
      vertex 21.5 81 -59
    endloop
  endfacet
  facet normal 1 0 0
    outer loop
      vertex 21.5 -78 -4
      vertex 21.5 -58.3109 -16
      vertex 21.5 -58.3109 -4
    endloop
  endfacet
  facet normal 1 0 0
    outer loop
      vertex 21.5 80.8235 -4
      vertex 21.5 80.8235 -16
      vertex 21.5 81 -4
    endloop
  endfacet
  facet normal 1 0 0
    outer loop
      vertex 21.5 77.8235 -16
      vertex 21.5 58.1345 -16
      vertex 21.5 80.8235 -16
    endloop
  endfacet
  facet normal 1 0 0
    outer loop
      vertex 21.5 58.1345 -4
      vertex 21.5 58.1345 -16
      vertex 21.5 77.8235 -16
    endloop
  endfacet
  facet normal 0 0 -1
    outer loop
      vertex 21.5 80.8235 -4
      vertex 21.5 81 -4
      vertex 33.5 80.8235 -4
    endloop
  endfacet
  facet normal 0 0 -1
    outer loop
      vertex 33.5 80.8235 -4
      vertex 21.5 81 -4
      vertex 33.5 81 -4
    endloop
  endfacet
  facet normal 1 0 0
    outer loop
      vertex 33.5 -32.6218 -4
      vertex 33.5 -81 -4
      vertex 33.5 -55.3109 -4
    endloop
  endfacet
  facet normal 1 0 0
    outer loop
      vertex 33.5 -55.3109 -4
      vertex 33.5 -81 -4
      vertex 33.5 -78 -4
    endloop
  endfacet
  facet normal 1 0 0
    outer loop
      vertex 33.5 -9.93277 -4
      vertex 33.5 -81 -4
      vertex 33.5 -32.6218 -4
    endloop
  endfacet
  facet normal 1 0 0
    outer loop
      vertex 33.5 12.7563 -4
      vertex 33.5 -81 -4
      vertex 33.5 -9.93277 -4
    endloop
  endfacet
  facet normal 1 0 0
    outer loop
      vertex 33.5 35.4454 -4
      vertex 33.5 -81 -4
      vertex 33.5 12.7563 -4
    endloop
  endfacet
  facet normal 1 0 0
    outer loop
      vertex 33.5 58.1345 -4
      vertex 33.5 -81 -4
      vertex 33.5 35.4454 -4
    endloop
  endfacet
  facet normal 1 0 0
    outer loop
      vertex 33.5 80.8235 -4
      vertex 33.5 -81 -4
      vertex 33.5 58.1345 -4
    endloop
  endfacet
  facet normal 1 0 0
    outer loop
      vertex 33.5 81 -4
      vertex 33.5 -81 -4
      vertex 33.5 80.8235 -4
    endloop
  endfacet
  facet normal 1 0 0
    outer loop
      vertex 33.5 81 0
      vertex 33.5 -81 -4
      vertex 33.5 81 -4
    endloop
  endfacet
  facet normal 1 0 0
    outer loop
      vertex 33.5 -81 0
      vertex 33.5 -81 -4
      vertex 33.5 81 0
    endloop
  endfacet
  facet normal 0 0 1
    outer loop
      vertex 17.5 81 0
      vertex 17.5 -81 0
      vertex 33.5 -81 0
    endloop
  endfacet
  facet normal 0 0 1
    outer loop
      vertex 33.5 81 0
      vertex 17.5 81 0
      vertex 33.5 -81 0
    endloop
  endfacet
  facet normal -1 0 0
    outer loop
      vertex 17.5 -81 -55
      vertex 17.5 -81 0
      vertex 17.5 81 -55
    endloop
  endfacet
  facet normal -1 0 0
    outer loop
      vertex 17.5 81 -55
      vertex 17.5 -81 0
      vertex 17.5 81 0
    endloop
  endfacet
  facet normal 0 0 1
    outer loop
      vertex -17.5 81 -55
      vertex -17.5 -81 -55
      vertex 17.5 -81 -55
    endloop
  endfacet
  facet normal 0 0 1
    outer loop
      vertex 17.5 81 -55
      vertex -17.5 81 -55
      vertex 17.5 -81 -55
    endloop
  endfacet
  facet normal 1 0 0
    outer loop
      vertex -17.5 -81 0
      vertex -17.5 -81 -55
      vertex -17.5 81 -55
    endloop
  endfacet
  facet normal 1 0 0
    outer loop
      vertex -17.5 81 0
      vertex -17.5 -81 0
      vertex -17.5 81 -55
    endloop
  endfacet
  facet normal 0.707107 -1.57009e-16 -0.707107
    outer loop
      vertex 21.5 -78 -16
      vertex 33.5 -81 -4
      vertex 21.5 -81 -16
    endloop
  endfacet
  facet normal 0.707107 -1.57009e-16 -0.707107
    outer loop
      vertex 33.5 -78 -4
      vertex 33.5 -81 -4
      vertex 21.5 -78 -16
    endloop
  endfacet
  facet normal 1.22465e-16 1 2.22045e-16
    outer loop
      vertex -21.5 81 -16
      vertex -33.5 81 -4
      vertex -21.5 81 -4
    endloop
  endfacet
  facet normal 0 1 -2.22045e-16
    outer loop
      vertex 33.5 -78 -4
      vertex 21.5 -78 -16
      vertex 21.5 -78 -4
    endloop
  endfacet
  facet normal 0 0 -1
    outer loop
      vertex 21.5 -78 -4
      vertex 21.5 -58.3109 -4
      vertex 33.5 -78 -4
    endloop
  endfacet
  facet normal 0 0 -1
    outer loop
      vertex 33.5 -78 -4
      vertex 21.5 -58.3109 -4
      vertex 33.5 -58.3109 -4
    endloop
  endfacet
  facet normal 0 0 -1
    outer loop
      vertex 33.5 -78 -4
      vertex 33.5 -58.3109 -4
      vertex 33.5 -55.3109 -4
    endloop
  endfacet
  facet normal 0 -1 2.22045e-16
    outer loop
      vertex 21.5 -58.3109 -4
      vertex 21.5 -58.3109 -16
      vertex 33.5 -58.3109 -4
    endloop
  endfacet
  facet normal 0.707107 -1.57009e-16 -0.707107
    outer loop
      vertex 33.5 -58.3109 -4
      vertex 21.5 -58.3109 -16
      vertex 21.5 -55.3109 -16
    endloop
  endfacet
  facet normal 0.707107 -1.57009e-16 -0.707107
    outer loop
      vertex 33.5 -55.3109 -4
      vertex 33.5 -58.3109 -4
      vertex 21.5 -55.3109 -16
    endloop
  endfacet
  facet normal 0 1 -2.22045e-16
    outer loop
      vertex 33.5 -55.3109 -4
      vertex 21.5 -55.3109 -16
      vertex 21.5 -55.3109 -4
    endloop
  endfacet
  facet normal 0 0 -1
    outer loop
      vertex 21.5 -55.3109 -4
      vertex 21.5 -35.6218 -4
      vertex 33.5 -55.3109 -4
    endloop
  endfacet
  facet normal 0 0 -1
    outer loop
      vertex 33.5 -55.3109 -4
      vertex 21.5 -35.6218 -4
      vertex 33.5 -35.6218 -4
    endloop
  endfacet
  facet normal 0 0 -1
    outer loop
      vertex 33.5 -55.3109 -4
      vertex 33.5 -35.6218 -4
      vertex 33.5 -32.6218 -4
    endloop
  endfacet
  facet normal 0 -1 2.22045e-16
    outer loop
      vertex 21.5 -35.6218 -4
      vertex 21.5 -35.6218 -16
      vertex 33.5 -35.6218 -4
    endloop
  endfacet
  facet normal 0.707107 -1.57009e-16 -0.707107
    outer loop
      vertex 33.5 -35.6218 -4
      vertex 21.5 -35.6218 -16
      vertex 21.5 -32.6218 -16
    endloop
  endfacet
  facet normal 0.707107 -1.57009e-16 -0.707107
    outer loop
      vertex 33.5 -32.6218 -4
      vertex 33.5 -35.6218 -4
      vertex 21.5 -32.6218 -16
    endloop
  endfacet
  facet normal 0 1 -2.22045e-16
    outer loop
      vertex 33.5 -32.6218 -4
      vertex 21.5 -32.6218 -16
      vertex 21.5 -32.6218 -4
    endloop
  endfacet
  facet normal 0 0 -1
    outer loop
      vertex 21.5 -32.6218 -4
      vertex 21.5 -12.9328 -4
      vertex 33.5 -32.6218 -4
    endloop
  endfacet
  facet normal 0 0 -1
    outer loop
      vertex 33.5 -32.6218 -4
      vertex 21.5 -12.9328 -4
      vertex 33.5 -12.9328 -4
    endloop
  endfacet
  facet normal 0 0 -1
    outer loop
      vertex 33.5 -32.6218 -4
      vertex 33.5 -12.9328 -4
      vertex 33.5 -9.93277 -4
    endloop
  endfacet
  facet normal 0 -1 2.22045e-16
    outer loop
      vertex 21.5 -12.9328 -4
      vertex 21.5 -12.9328 -16
      vertex 33.5 -12.9328 -4
    endloop
  endfacet
  facet normal 0.707107 -1.57009e-16 -0.707107
    outer loop
      vertex 33.5 -12.9328 -4
      vertex 21.5 -12.9328 -16
      vertex 21.5 -9.93277 -16
    endloop
  endfacet
  facet normal 0.707107 -1.57009e-16 -0.707107
    outer loop
      vertex 33.5 -9.93277 -4
      vertex 33.5 -12.9328 -4
      vertex 21.5 -9.93277 -16
    endloop
  endfacet
  facet normal 0 1 -2.22045e-16
    outer loop
      vertex 33.5 -9.93277 -4
      vertex 21.5 -9.93277 -16
      vertex 21.5 -9.93277 -4
    endloop
  endfacet
  facet normal 0 0 -1
    outer loop
      vertex 21.5 -9.93277 -4
      vertex 21.5 9.7563 -4
      vertex 33.5 -9.93277 -4
    endloop
  endfacet
  facet normal 0 0 -1
    outer loop
      vertex 33.5 -9.93277 -4
      vertex 21.5 9.7563 -4
      vertex 33.5 9.7563 -4
    endloop
  endfacet
  facet normal 0 0 -1
    outer loop
      vertex 33.5 -9.93277 -4
      vertex 33.5 9.7563 -4
      vertex 33.5 12.7563 -4
    endloop
  endfacet
  facet normal 0 -1 2.22045e-16
    outer loop
      vertex 21.5 9.7563 -4
      vertex 21.5 9.7563 -16
      vertex 33.5 9.7563 -4
    endloop
  endfacet
  facet normal 0.707107 -1.57009e-16 -0.707107
    outer loop
      vertex 33.5 9.7563 -4
      vertex 21.5 9.7563 -16
      vertex 21.5 12.7563 -16
    endloop
  endfacet
  facet normal 0.707107 -1.57009e-16 -0.707107
    outer loop
      vertex 33.5 12.7563 -4
      vertex 33.5 9.7563 -4
      vertex 21.5 12.7563 -16
    endloop
  endfacet
  facet normal 0 1 -2.22045e-16
    outer loop
      vertex 33.5 12.7563 -4
      vertex 21.5 12.7563 -16
      vertex 21.5 12.7563 -4
    endloop
  endfacet
  facet normal 0 0 -1
    outer loop
      vertex 21.5 12.7563 -4
      vertex 21.5 32.4454 -4
      vertex 33.5 12.7563 -4
    endloop
  endfacet
  facet normal 0 0 -1
    outer loop
      vertex 33.5 12.7563 -4
      vertex 21.5 32.4454 -4
      vertex 33.5 32.4454 -4
    endloop
  endfacet
  facet normal 0 0 -1
    outer loop
      vertex 33.5 12.7563 -4
      vertex 33.5 32.4454 -4
      vertex 33.5 35.4454 -4
    endloop
  endfacet
  facet normal 0 -1 2.22045e-16
    outer loop
      vertex 21.5 32.4454 -4
      vertex 21.5 32.4454 -16
      vertex 33.5 32.4454 -4
    endloop
  endfacet
  facet normal 0.707107 -1.57009e-16 -0.707107
    outer loop
      vertex 33.5 32.4454 -4
      vertex 21.5 32.4454 -16
      vertex 21.5 35.4454 -16
    endloop
  endfacet
  facet normal 0.707107 -1.57009e-16 -0.707107
    outer loop
      vertex 33.5 35.4454 -4
      vertex 33.5 32.4454 -4
      vertex 21.5 35.4454 -16
    endloop
  endfacet
  facet normal 0 1 -2.22045e-16
    outer loop
      vertex 33.5 35.4454 -4
      vertex 21.5 35.4454 -16
      vertex 21.5 35.4454 -4
    endloop
  endfacet
  facet normal 0 0 -1
    outer loop
      vertex 21.5 35.4454 -4
      vertex 21.5 55.1345 -4
      vertex 33.5 35.4454 -4
    endloop
  endfacet
  facet normal 0 0 -1
    outer loop
      vertex 33.5 35.4454 -4
      vertex 21.5 55.1345 -4
      vertex 33.5 55.1345 -4
    endloop
  endfacet
  facet normal 0 0 -1
    outer loop
      vertex 33.5 35.4454 -4
      vertex 33.5 55.1345 -4
      vertex 33.5 58.1345 -4
    endloop
  endfacet
  facet normal 0 -1 2.22045e-16
    outer loop
      vertex 21.5 55.1345 -4
      vertex 21.5 55.1345 -16
      vertex 33.5 55.1345 -4
    endloop
  endfacet
  facet normal 0.707107 -1.57009e-16 -0.707107
    outer loop
      vertex 33.5 55.1345 -4
      vertex 21.5 55.1345 -16
      vertex 21.5 58.1345 -16
    endloop
  endfacet
  facet normal 0.707107 -1.57009e-16 -0.707107
    outer loop
      vertex 33.5 58.1345 -4
      vertex 33.5 55.1345 -4
      vertex 21.5 58.1345 -16
    endloop
  endfacet
  facet normal 0 1 -2.22045e-16
    outer loop
      vertex 33.5 58.1345 -4
      vertex 21.5 58.1345 -16
      vertex 21.5 58.1345 -4
    endloop
  endfacet
  facet normal 0 0 -1
    outer loop
      vertex 21.5 58.1345 -4
      vertex 21.5 77.8235 -4
      vertex 33.5 58.1345 -4
    endloop
  endfacet
  facet normal 0 0 -1
    outer loop
      vertex 33.5 58.1345 -4
      vertex 21.5 77.8235 -4
      vertex 33.5 77.8235 -4
    endloop
  endfacet
  facet normal 0 0 -1
    outer loop
      vertex 33.5 58.1345 -4
      vertex 33.5 77.8235 -4
      vertex 33.5 80.8235 -4
    endloop
  endfacet
  facet normal 0 -1 2.22045e-16
    outer loop
      vertex 21.5 77.8235 -4
      vertex 21.5 77.8235 -16
      vertex 33.5 77.8235 -4
    endloop
  endfacet
  facet normal 0.707107 -1.57009e-16 -0.707107
    outer loop
      vertex 33.5 77.8235 -4
      vertex 21.5 77.8235 -16
      vertex 21.5 80.8235 -16
    endloop
  endfacet
  facet normal 0.707107 -1.57009e-16 -0.707107
    outer loop
      vertex 33.5 80.8235 -4
      vertex 33.5 77.8235 -4
      vertex 21.5 80.8235 -16
    endloop
  endfacet
  facet normal 0 1 -2.22045e-16
    outer loop
      vertex 33.5 80.8235 -4
      vertex 21.5 80.8235 -16
      vertex 21.5 80.8235 -4
    endloop
  endfacet
  facet normal 0 -1 2.22045e-16
    outer loop
      vertex 21.5 -81 -4
      vertex 21.5 -81 -16
      vertex 33.5 -81 -4
    endloop
  endfacet
endsolid OpenSCAD_Model
